<svg id="Capa_1" enable-background="new 0 0 501 501" height="512" viewBox="0 0 501 501" width="512" xmlns="http://www.w3.org/2000/svg"><g><path d="m5.5 256c0-135.31 109.69-245 245-245s245 109.69 245 245c0 74.847-33.563 141.855-86.459 186.794-1.072.91-12.642 9.956-13.729 10.849-42.271-34.684-85.865-63.646-144.812-63.646s-113.031 20.817-155.303 55.501c-54.761-44.932-89.697-113.135-89.697-189.498z" fill="#fda800"/><path d="m495.5 256c0 3.771-.085 7.521-.254 11.25h-489.492c-.168-3.729-.254-7.479-.254-11.25 0-135.31 109.69-245 245-245s245 109.69 245 245z" fill="#f5c02c"/><path d="m377.5 77.889-280.111 35.014c-21.869 2.734-41.696-13.084-43.889-35.014l288.53-77.544c5.126-1.378 10.435 1.489 12.094 6.531z" fill="#962437"/><path d="m417.225 107.889-349.725 10-14-40 360.985-57.912c6.537-1.049 12.27 4.43 11.519 11.008z" fill="#c92e43"/><path d="m440.556 127.89-19.738 142.11-25.506 183.643c-40.566 29.773-90.635 47.357-144.812 47.357-61.133 0-117.036-22.391-159.957-59.418l-17.476-171.582-16.706-164.023c-1.547-15.182 10.105-28.492 25.358-28.967l292.781-9.121c12.356 25.75 33.642 46.136 59.901 57.368z" fill="#ea5569"/><path d="m440.556 127.89-56.455 7.423c-9.846 1.294-18.209-7.163-16.805-16.993l7.204-50.43z" fill="#f7a4ae"/><path d="m356.5 435.985h-14.05l-10.757-5.985h-160.25l-12.894 5.985h-14.049c-5.523 0-10-4.477-10-10v-256.19c0-5.523 4.477-10 10-10h212c5.523 0 10 4.477 10 10v256.19c0 5.522-4.477 10-10 10z" fill="#91cefb"/><path d="m366.5 169.794v256.19c0 5.523-4.477 10-10 10h-14.05l-5.7-8.734h-159.561l114.811-267.456h64.5c5.523 0 10 4.477 10 10z" fill="#bbe0fb"/><path d="m169.5 140h-25c-5.523 0-10-4.477-10-10v-22.111c0-5.523 4.477-10 10-10h25c5.523 0 10 4.477 10 10v22.111c0 5.523-4.477 10-10 10z" fill="#962437"/><path d="m214.5 140h-45.95c-5.523 0-10-4.477-10-10v-22.111c0-5.523 4.477-10 10-10h45.95c5.523 0 10 4.477 10 10v22.111c0 5.523-4.477 10-10 10zm120-32.722v-3.333c0-2.761-2.239-5-5-5h-90c-2.761 0-5 2.239-5 5v3.333c0 2.761 2.239 5 5 5h90c2.761 0 5-2.239 5-5zm-50 26.667v-3.333c0-2.761-2.239-5-5-5h-40c-2.761 0-5 2.239-5 5v3.333c0 2.761 2.239 5 5 5h40c2.761 0 5-2.239 5-5z" fill="#ab2538"/><path d="m348.5 290.126c0 20.631-5.242 39.771-14.194 55.555-4.225 7.449-11.519 12.681-19.91 14.393-20.345 4.149-41.771 6.365-63.896 6.365s-43.551-2.216-63.896-6.365c-8.391-1.711-15.686-6.943-19.91-14.393-8.952-15.784-14.194-34.924-14.194-55.555 0-54.074 36.013-97.909 80.437-97.909 6.033 0 11.91.809 17.563 2.341 5.653-1.533 11.531-2.341 17.563-2.341 44.424 0 80.437 43.836 80.437 97.909z" fill="#7d402d"/><path d="m235.2 366.083c-16.749-.78-33.033-2.831-48.677-6.025-8.36-1.707-15.616-6.948-19.826-14.37-8.954-15.785-14.197-34.928-14.197-55.561 0-54.073 36.013-97.909 80.437-97.909 4.659 0 9.225.482 13.667 1.408-12.214 27.628-19.604 63.663-19.604 103.078 0 24.898 2.949 48.446 8.2 69.379z" fill="#533022"/><path d="m216.767 377.767h24.183c32.152 0 58.217 26.065 58.217 58.217h-140.617c0-32.152 26.064-58.217 58.217-58.217z" fill="#463b83"/><path d="m237.581 377.767h46.652c32.152 0 58.217 26.065 58.217 58.217h-163.086c0-32.152 26.064-58.217 58.217-58.217z" fill="#54469b"/><path d="m184.903 317.538c-8.234 0-14.908-6.675-14.908-14.908v-5.963c0-8.234 6.675-14.908 14.908-14.908 8.234 0 14.908 6.675 14.908 14.908v5.963c0 8.233-6.674 14.908-14.908 14.908z" fill="#eabe8d"/><path d="m331.005 296.666v5.537c0 8.186-6.417 15.167-14.601 15.332-1.581.032-3.108-.183-4.544-.608-7.307 19.281-23.442 34.22-43.47 39.885v20.359c0 9.88-8.01 17.89-17.89 17.89-9.88 0-17.89-8.01-17.89-17.89v-20.359c-27.533-7.787-47.707-33.102-47.707-63.127v-23.854c0-36.228 29.369-65.597 65.597-65.597 36.228 0 65.597 29.369 65.597 65.597v11.927c8.234-.001 14.908 6.674 14.908 14.908zm-146.103-14.909c-8.233 0-14.907 6.675-14.907 14.908v5.963c0 8.233 6.674 14.908 14.907 14.909-3.62-2.72-5.962-7.05-5.962-11.927v-11.927c0-4.876 2.341-9.205 5.962-11.926z" fill="#e3ac6e"/><path d="m316.097 269.831v23.853c0 30.289-20.529 55.783-48.432 63.328-5.381 1.455-11.059 1.455-16.44 0-27.903-7.545-48.432-33.039-48.432-63.328v-23.853c0-33.194 24.655-60.629 56.652-64.992 31.997 4.363 56.652 31.798 56.652 64.992z" fill="#eabe8d"/><path d="m124.259 466.014c-11.94-7.193-23.217-15.374-33.717-24.432l-17.475-171.582-19.567-192.111 30.806-4.942z" fill="#c92e43"/><path d="m241.671 304.529c-1.833-1.833-1.833-4.805 0-6.638 1.833-1.832 4.805-1.832 6.638 0 .652.652 1.517 1.011 2.436 1.011s1.784-.359 2.436-1.011c1.833-1.832 4.805-1.832 6.638 0 1.833 1.833 1.833 4.805 0 6.638-2.425 2.425-5.648 3.76-9.074 3.76s-6.649-1.335-9.074-3.76z" fill="#d89c56"/><path d="m230.406 279.978c0 5.184-4.203 9.387-9.387 9.387s-9.387-4.203-9.387-9.387 4.203-9.387 9.387-9.387 9.387 4.202 9.387 9.387zm50.064-9.387c-5.184 0-9.387 4.203-9.387 9.387s4.203 9.387 9.387 9.387 9.387-4.203 9.387-9.387c0-5.185-4.202-9.387-9.387-9.387z" fill="#002c5d"/><path d="m231.97 275.284c0 2.592-2.101 4.694-4.694 4.694-2.592 0-4.694-2.101-4.694-4.694 0-2.592 2.101-4.694 4.694-4.694 2.593.001 4.694 2.102 4.694 4.694zm54.758-4.693c-2.592 0-4.694 2.101-4.694 4.694 0 2.592 2.101 4.694 4.694 4.694 2.592 0 4.694-2.101 4.694-4.694s-2.102-4.694-4.694-4.694z" fill="#fff5f5"/><path d="m250.745 344.123c-10.369 0-18.774-8.405-18.774-18.774 0-2.592 2.101-4.694 4.694-4.694h28.161c2.592 0 4.694 2.101 4.694 4.694-.001 10.368-8.407 18.774-18.775 18.774z" fill="#fff5f5"/><path d="m255.438 343.531c-1.5.386-3.073.591-4.694.591-10.369 0-18.774-8.405-18.774-18.774 0-2.592 2.101-4.694 4.694-4.694h9.387c-2.592 0-4.694 2.101-4.694 4.694 0 8.749 5.984 16.099 14.081 18.183z" fill="#e3f0fb"/><path d="m348.5 290.126c0 .825-.008 1.647-.025 2.468-60.349-7.175-111.427-44.566-137.679-96.62 7.034-2.446 14.462-3.757 22.141-3.757 6.033 0 11.91.809 17.563 2.341 5.653-1.533 11.531-2.341 17.563-2.341 44.424 0 80.437 43.836 80.437 97.909z" fill="#7d402d"/><path d="m154.123 270.465c7.478-44.651 39.923-78.248 78.814-78.248 6.033 0 11.91.809 17.563 2.341 5.653-1.533 11.531-2.341 17.563-2.341 3.391 0 6.733.256 10.013.752-27.693 41.405-72.308 70.534-123.953 77.496z" fill="#533022"/><path d="m414.207 297.28-6.941-20.544c-.399-1.182-1.327-2.11-2.509-2.509l-20.544-6.941c-3.626-1.225-3.626-6.354 0-7.579l20.544-6.941c1.182-.399 2.11-1.327 2.509-2.509l6.941-20.544c1.225-3.626 6.354-3.626 7.579 0l6.941 20.544c.399 1.182 1.327 2.11 2.509 2.509l20.544 6.941c3.626 1.225 3.626 6.354 0 7.579l-20.544 6.941c-1.182.399-2.11 1.327-2.509 2.509l-6.941 20.544c-1.225 3.627-6.354 3.627-7.579 0zm-239.966 124.6 5.123-15.164c.295-.872.98-1.557 1.852-1.852l15.164-5.123c2.677-.904 2.677-4.69 0-5.594l-15.164-5.123c-.872-.295-1.557-.98-1.852-1.852l-5.123-15.164c-.904-2.677-4.69-2.677-5.594 0l-5.123 15.164c-.295.872-.98 1.557-1.852 1.852l-15.164 5.123c-2.677.904-2.677 4.69 0 5.594l15.164 5.123c.872.295 1.557.98 1.852 1.852l5.123 15.164c.904 2.676 4.689 2.676 5.594 0zm152.63-189.042 3.305-9.783c.19-.563.632-1.005 1.195-1.195l9.783-3.305c1.727-.583 1.727-3.026 0-3.609l-9.783-3.305c-.563-.19-1.005-.632-1.195-1.195l-3.305-9.783c-.583-1.727-3.026-1.727-3.609 0l-3.305 9.783c-.19.563-.632 1.005-1.195 1.195l-9.783 3.305c-1.727.583-1.727 3.026 0 3.609l9.783 3.305c.563.19 1.005.632 1.195 1.195l3.305 9.783c.584 1.727 3.026 1.727 3.609 0z" fill="#fff5f5"/></g></svg>